<svg width="257" height="225" viewBox="0 0 257 225" fill="none" xmlns="http://www.w3.org/2000/svg">
<g clip-path="url(#clip0_14_87)">
<path d="M31.7105 127.213C42.1274 127.213 50.572 116.218 50.572 102.655C50.572 89.0923 42.1274 78.0974 31.7105 78.0974C21.2937 78.0974 12.8491 89.0923 12.8491 102.655C12.8491 116.218 21.2937 127.213 31.7105 127.213Z" fill="#FF6884"/>
<path d="M39.884 224.301H3.56348L11.7718 52.7754L17.1285 12.3497L18.1494 5.52925C19.3583 -2.54657 28.4784 -1.46809 28.5505 6.75914C28.7181 25.8869 22.5619 43.8884 22.8623 52.7754C24.2174 93.0084 27.0496 150.058 32.5078 166.874C36.5615 179.368 38.7291 219.601 39.884 224.301Z" fill="#3F3D56"/>
<path d="M252.293 224.301H218.714L215.185 52.7754L208.42 12.3572C208.342 4.11047 217.471 2.77484 218.801 10.8384C218.801 10.8384 225.466 28.826 226.276 52.7754C227.631 93.0084 239.458 150.058 244.916 166.874C248.97 179.368 251.138 219.601 252.293 224.301Z" fill="#3F3D56"/>
<path d="M50.9339 111.903C58.5305 112.698 76.1791 124.748 76.1792 124.748C89.8937 142.626 110.378 143.686 124.058 144.394C144.399 145.447 159.797 137.204 171.067 131.171C171.067 131.171 197.412 123.271 197.763 123.237C198.183 123.196 198.58 124.544 198.633 124.748C199.503 128.095 189.943 140.493 178.901 144.772C177.397 145.355 173.985 146.516 170.486 150.062C168.314 152.263 167.039 154.441 166.714 154.973C163.751 159.828 148.006 178.323 130.152 179.153C114.882 179.862 102.676 167.437 88.9469 153.462C83.5017 147.919 84.1547 147.51 77.3399 140.616C61.8845 124.983 54.1568 117.166 50.6437 114.547C50.1568 114.184 48.4517 112.944 48.6124 112.281C48.7591 111.675 50.3891 111.846 50.9339 111.903Z" fill="#6C63FF"/>
<path d="M48.6122 112.658C48.5599 112.658 48.5071 112.64 48.4595 112.602L10.6773 82.0666C10.5411 81.9567 10.4992 81.7237 10.5837 81.5464C10.6682 81.3688 10.8473 81.3141 10.9833 81.4246L48.7655 111.96C48.9017 112.07 48.9436 112.303 48.859 112.48C48.8041 112.595 48.7093 112.658 48.6122 112.658Z" fill="#3F3D56"/>
<path d="M197.763 123.615C197.658 123.615 197.557 123.541 197.506 123.412C197.431 123.227 197.486 122.999 197.629 122.902L230.314 100.676C230.457 100.579 230.632 100.651 230.706 100.836C230.78 101.021 230.725 101.249 230.583 101.346L197.897 123.572C197.854 123.601 197.808 123.615 197.763 123.615Z" fill="#3F3D56"/>
<path d="M0 224.55C0 224.8 0.153802 225 0.345327 225H46.5674C46.7589 225 46.9127 224.8 46.9127 224.55C46.9127 224.301 46.7589 224.101 46.5674 224.101H0.345327C0.153802 224.101 0 224.301 0 224.55Z" fill="#3F3D56"/>
<path d="M206.895 224.55C206.895 224.8 207.049 225 207.241 225H256.655C256.846 225 257 224.8 257 224.55C257 224.301 256.846 224.101 256.655 224.101H207.241C207.049 224.101 206.895 224.301 206.895 224.55Z" fill="#3F3D56"/>
<path d="M114.619 224.55C114.619 224.8 114.773 225 114.965 225H164.379C164.57 225 164.724 224.8 164.724 224.55C164.724 224.301 164.57 224.101 164.379 224.101H114.965C114.773 224.101 114.619 224.301 114.619 224.55Z" fill="#3F3D56"/>
<path d="M80.8501 118.846C80.8501 118.846 78.9976 122.636 80.5212 124.867C82.0449 127.099 91.256 135.989 91.256 135.989C91.256 135.989 97.0587 140.621 96.4905 134.241C95.9222 127.861 87.65 121.033 87.65 121.033L80.8501 118.846Z" fill="#E6E6E6"/>
<path d="M95.9074 108.818C94.9165 108.693 93.9916 110.235 93.8414 112.263C93.7728 113.072 93.854 113.891 94.0783 114.651L93.93 116.951L93.8996 116.955L91.8365 127.52C91.3569 129.976 91.7484 132.608 92.9632 134.589C93.6858 135.767 94.5368 136.486 95.3112 135.424C96.5963 133.661 96.5556 125.045 96.42 120.119L96.8458 114.998C97.1776 114.308 97.3777 113.525 97.4292 112.713C97.5796 110.686 96.8982 108.942 95.9074 108.818Z" fill="#FFB6B6"/>
<path d="M98.8571 108.36L98.8462 108.201C98.8381 108.075 98.7946 107.961 98.7268 107.883C98.6589 107.806 98.5721 107.777 98.4879 107.798L94.4053 108.964C94.3211 108.988 94.2506 109.062 94.2044 109.168C94.161 109.278 94.1474 109.408 94.1691 109.53L94.2071 109.742L94.4786 111.263L95.5264 117.133C95.5644 117.345 95.6974 117.484 95.8385 117.467C95.8521 117.467 95.863 117.467 95.8765 117.463L99.1041 116.509C99.1367 116.501 99.1665 116.485 99.1937 116.46C99.2968 116.375 99.3593 116.204 99.3484 116.02L98.8571 108.36Z" fill="#6C63FF"/>
<path d="M98.7781 107.475C98.7197 107.477 98.6416 107.481 98.5481 107.487C98.5669 107.413 98.57 107.329 98.5523 107.248L98.4289 106.678C98.3969 106.531 98.3058 106.43 98.2023 106.43C97.5861 106.425 95.4742 106.497 94.2385 107.644C94.1612 107.715 94.1189 107.848 94.1279 107.984L94.1691 108.609C94.1742 108.686 94.1952 108.755 94.2263 108.809C94.121 108.874 94.0163 108.941 93.9128 109.013C93.8479 109.058 93.8072 109.157 93.8081 109.264L93.8104 109.533C93.8119 109.703 93.916 109.83 94.0275 109.797L98.9037 108.35C99.0147 108.317 99.0789 108.141 99.038 107.983L98.9519 107.65C98.9242 107.542 98.8547 107.473 98.7781 107.475Z" fill="#3F3D56"/>
<path d="M86.1609 115.908L84.9085 121.207L79.5858 119.577L79.2727 111.016L86.1609 115.908Z" fill="#FFB6B6"/>
<path d="M78.6466 118.354L85.5348 119.169L88.2949 122.679L92.11 126.915C92.11 126.915 94.3017 130.991 93.6755 136.291L97.4327 140.367L88.0396 152.905L76.1418 139.96C76.1418 139.96 72.0715 124.061 78.6466 118.354Z" fill="#E6E6E6"/>
<path d="M94.9278 140.775L97.6618 140.367L102.099 140.775L116.679 129.471C118.512 128.049 120.882 128.792 122.018 131.145L133.752 155.451L129.995 158.712L118.41 143.221L103.963 158.712C103.963 158.712 89.292 168.704 88.0396 152.905L94.9278 140.775Z" fill="#2F2E41"/>
<path d="M104.008 155.043L127.49 152.189L149.72 159.527L150.973 153.412L120.602 139.144L109.644 142.813L104.008 155.043Z" fill="#2F2E41"/>
<path d="M77.6729 121.669C77.6729 121.669 75.5183 125.177 76.8489 127.609C78.1796 130.04 86.6035 140.168 86.6035 140.168C86.6035 140.168 91.9902 145.586 91.9519 139.163C91.9136 132.74 84.2529 124.795 84.2529 124.795L77.6729 121.669Z" fill="#E6E6E6"/>
<path d="M84.3351 116.164C87.6182 116.164 90.2797 112.698 90.2797 108.424C90.2797 104.149 87.6182 100.684 84.3351 100.684C81.0519 100.684 78.3904 104.149 78.3904 108.424C78.3904 112.698 81.0519 116.164 84.3351 116.164Z" fill="#FFB6B6"/>
<path d="M89.8153 107.093C88.2907 107.089 88.2041 107.102 87.9576 107.093C86.0666 107.028 85.5721 106.06 84.6137 106.126C82.903 106.244 85.1608 117.411 86.0998 122.573C87.0208 127.636 83.9085 132.173 83.6848 132.49C80.5258 136.963 74.9769 137.781 74.0247 135.876C73.2541 134.335 75.9854 131.99 75.3251 128.62C74.6797 125.326 71.6997 125.677 70.8666 122.573C69.9943 119.323 72.926 117.684 74.7678 109.754C75.8256 105.2 75.6385 104.351 76.6255 101.53C79.2639 93.9903 92.1959 97.2006 90.7441 104.191C90.4633 105.543 91.2107 107.098 89.8153 107.093Z" fill="#2F2E41"/>
<path d="M49.0478 112.092C56.6445 112.887 74.1592 129.45 74.1592 129.45C87.8737 147.328 108.358 148.388 122.038 149.096C142.379 150.149 157.777 141.906 169.047 135.873C169.047 135.873 192.396 140.817 195.163 129.072C195.189 128.96 195.392 127.973 195.743 127.939C196.163 127.898 196.56 129.246 196.613 129.45C197.483 132.797 187.923 145.195 176.881 149.474C175.377 150.057 171.965 151.218 168.466 154.763C166.295 156.964 165.019 159.143 164.694 159.675C161.731 164.53 145.987 183.025 128.132 183.855C112.862 184.564 100.656 172.139 86.927 158.164C81.4817 152.621 82.1347 152.212 75.3199 145.318C59.8646 129.685 52.1369 121.868 48.6237 119.249C48.1368 118.886 47.4362 112.377 47.5969 111.714C47.7436 111.108 48.503 112.035 49.0478 112.092Z" fill="#6C63FF"/>
<path d="M110.155 152.499C110.596 151.337 109.817 149.664 108.414 148.761C107.858 148.39 107.241 148.199 106.616 148.202L105.017 147.205L105.025 147.166L98.1713 140.905C96.5778 139.449 94.5492 138.991 92.6959 139.766C91.5934 140.228 90.7749 141.008 91.2628 142.328C92.0725 144.518 98.2728 147.527 101.858 149.111L105.384 151.447C105.761 152.096 106.253 152.618 106.817 152.968C108.219 153.871 109.714 153.661 110.155 152.499Z" fill="#FFB6B6"/>
<path d="M148.635 94.4892C148.635 94.4892 146.381 88.6184 146.831 83.3346L139.328 88.3985L139.617 98.0117L148.635 94.4892Z" fill="#A0616A"/>
<path d="M142.007 91.11C145.745 91.11 148.776 87.1643 148.776 82.297C148.776 77.4297 145.745 73.484 142.007 73.484C138.269 73.484 135.238 77.4297 135.238 82.297C135.238 87.1643 138.269 91.11 142.007 91.11Z" fill="#A0616A"/>
<path d="M150.893 220.695L146.762 220.695L144.798 199.951L150.894 199.952L150.893 220.695Z" fill="#A0616A"/>
<path d="M136.742 220.573C136.613 220.855 136.545 221.765 136.545 222.093C136.545 223.101 137.173 223.919 137.947 223.919H150.738C151.267 223.919 151.695 223.361 151.695 222.673V221.98C151.695 221.98 152.328 219.896 151.025 217.327C151.025 217.327 149.406 219.339 146.986 216.188L146.273 214.506L141.108 219.423L138.245 219.882C137.619 219.983 137.064 219.867 136.742 220.573Z" fill="#2F2E41"/>
<path d="M138.715 94.4892L148.635 92.728L156.301 97.4247L156.752 133.824C156.752 133.824 137.895 136.759 134.923 132.943C131.952 129.127 134.206 98.5988 134.206 98.5988L138.715 94.4892Z" fill="#E6E6E6"/>
<path d="M143.7 84.5422H145.52C145.52 84.5422 147.099 82.0118 146.886 83.5536C146.674 85.0953 147.524 86.7546 147.524 86.7546L148.798 86.2015C148.798 86.2015 151.347 72.2476 143.7 71.481C136.054 70.7145 134.354 78.458 134.354 78.458C134.354 78.458 134.779 82.3298 135.629 81.2236C136.478 80.1173 141.151 79.5642 141.151 79.5642L143.7 84.5422Z" fill="#2F2E41"/>
<path d="M134.123 179.626L130.345 181.801L122.104 163.865L127.679 160.655L134.123 179.626Z" fill="#A0616A"/>
<path d="M121.143 186.967C121.113 187.293 121.334 188.161 121.436 188.461C121.749 189.383 122.577 189.8 123.285 189.392L134.983 182.655C135.466 182.377 135.684 181.641 135.471 181.013L135.255 180.378C135.255 180.378 135.187 178.139 133.197 176.476C133.197 176.476 132.341 179.168 129.15 177.562L127.974 176.398L124.779 183.616L122.304 185.543C121.762 185.965 121.218 186.151 121.143 186.967Z" fill="#2F2E41"/>
<path d="M155.399 130.301L156.752 135.627V153.933L152.333 170.517L152.693 209.184H144.765L143.87 169.743L144.577 150.262L139.166 147.327L124.954 148.469L131.6 169.743L124.286 176.094C124.286 176.094 113.347 143.636 114.984 140.491C116.621 137.346 135.784 131.799 135.784 131.799C135.784 131.799 155.399 130.889 155.399 130.301Z" fill="#2F2E41"/>
<path d="M159.457 109.166L161.637 113.815C161.637 113.815 164.719 129.586 161.637 129.65C158.555 129.714 152.333 121.613 152.333 121.613L153.144 117.386L155.399 118.56L154.948 109.166H159.457Z" fill="#A0616A"/>
<path d="M152.693 97.3507C152.693 97.3507 159.908 95.6958 160.584 101.844C161.261 107.992 161.637 113.815 161.637 113.815L153.821 114.658L152.693 97.3507Z" fill="#E6E6E6"/>
<path d="M154.259 121.096C154.911 119.904 153.955 117.56 152.124 115.862C150.292 114.164 148.279 113.753 147.627 114.946C146.975 116.138 147.931 118.481 149.762 120.18C151.594 121.878 153.607 122.288 154.259 121.096Z" fill="#A0616A"/>
<path d="M142.97 107.037L142.954 106.796C142.942 106.604 142.876 106.431 142.773 106.313C142.67 106.196 142.538 106.152 142.41 106.183L136.21 107.954C136.082 107.991 135.975 108.102 135.905 108.263C135.839 108.43 135.819 108.628 135.852 108.814L135.909 109.136L136.321 111.445L137.913 120.359C137.97 120.681 138.172 120.892 138.387 120.867C138.407 120.867 138.424 120.867 138.444 120.861L143.346 119.412C143.395 119.4 143.44 119.375 143.482 119.338C143.638 119.208 143.733 118.948 143.717 118.669L142.97 107.037Z" fill="#6C63FF"/>
<path d="M142.85 105.694C142.762 105.697 142.643 105.702 142.501 105.712C142.53 105.599 142.534 105.472 142.507 105.348L142.32 104.483C142.272 104.259 142.133 104.107 141.976 104.105C141.04 104.098 137.833 104.207 135.957 105.949C135.839 106.058 135.775 106.26 135.789 106.466L135.851 107.415C135.859 107.532 135.891 107.636 135.938 107.718C135.778 107.817 135.619 107.92 135.462 108.028C135.364 108.096 135.302 108.247 135.303 108.409L135.307 108.818C135.309 109.077 135.467 109.27 135.636 109.219L143.041 107.021C143.21 106.971 143.307 106.705 143.245 106.464L143.114 105.958C143.072 105.795 142.967 105.69 142.85 105.694Z" fill="#3F3D56"/>
<path d="M128.994 109.544L126.814 114.193C126.814 114.193 123.732 129.964 126.814 130.028C129.896 130.092 136.118 121.991 136.118 121.991L135.307 117.763L133.052 118.938L133.503 109.544H128.994Z" fill="#A0616A"/>
<path d="M135.758 97.7285C135.758 97.7285 128.543 96.0736 127.867 102.222C127.19 108.37 126.814 114.193 126.814 114.193L134.63 115.036L135.758 97.7285Z" fill="#E6E6E6"/>
<path d="M138.689 120.558C140.52 118.859 141.476 116.516 140.824 115.324C140.172 114.131 138.158 114.542 136.327 116.24C134.495 117.938 133.539 120.282 134.192 121.474C134.844 122.666 136.857 122.256 138.689 120.558Z" fill="#A0616A"/>
</g>
<defs>
<clipPath id="clip0_14_87">
<rect width="257" height="225" fill="white"/>
</clipPath>
</defs>
</svg>
