<svg width="50" height="49" viewBox="0 0 62 49" fill="none" xmlns="http://www.w3.org/2000/svg">
<path d="M33.4158 44.8177H37.8571C39.7851 44.8177 41.6886 44.808 43.5797 44.3934C48.9609 43.2072 53.219 39.5332 54.122 35.1648C54.3297 34.1427 54.3415 33.1299 54.3415 32.0982V28.0767V20.9311C54.3292 16.1385 51.9868 11.4808 47.7646 8.02845C43.2378 4.3256 36.8076 2.26196 30.292 2.41594C24.716 2.5509 19.335 4.27689 15.211 7.24704C11.1114 10.1978 8.50023 14.2577 7.80443 18.5974C7.43831 20.8733 7.62137 23.2166 7.62137 25.5019V33.0815V34.0748C7.62137 35.319 10.0617 35.319 10.0617 34.0748V21.3654C10.0617 19.7452 10.2324 18.1736 10.7693 16.6016C11.4159 14.673 12.502 12.8696 13.9659 11.2497C16.859 8.00998 21.276 5.69559 26.1322 4.76995C31.8179 3.69961 37.9067 4.59649 42.739 7.18081C47.656 9.80365 51.0364 14.1334 51.7439 18.7915C52.0854 21.0865 51.8905 23.4686 51.8905 25.7637V32.9769C51.8905 36.4581 49.7066 39.7079 45.8997 41.5113C43.9475 42.4276 41.7631 42.8808 39.4941 42.8808H34.7354H33.4053C31.8552 42.8901 31.843 44.8187 33.4172 44.8187L33.4158 44.8177Z" fill="white"/>
<path d="M13.5395 35.0302C13.0026 35.0302 12.417 35.0784 11.8924 35.0108C11.0991 34.924 10.4038 34.4706 10.1233 33.8825C9.84281 33.2945 9.97668 32.5034 9.97668 31.8863V25.4543C9.97668 24.5381 10.3551 23.6898 11.575 23.3908C12.1729 23.2461 12.8683 23.3041 13.4907 23.3138C14.2229 23.3235 14.8937 23.5452 15.3454 24.0177C15.9187 24.6155 15.7966 25.3968 15.7966 26.1008V29.5049V32.8897C15.7966 33.2273 15.8089 33.5551 15.65 33.883C15.3085 34.5768 14.4665 35.0108 13.5393 35.0303C11.9775 35.0591 11.9651 36.9877 13.5393 36.9589C16.1504 36.9107 18.1883 35.2904 18.2369 33.2268C18.2615 32.3685 18.2369 31.5008 18.2369 30.6328V26.6888C18.2369 25.8017 18.3713 24.7987 18.0051 23.9501C17.578 22.9568 16.6508 22.1373 15.4428 21.713C14.4911 21.3851 13.5271 21.3851 12.5143 21.3851C9.96416 21.3851 7.78023 22.7546 7.56033 24.8279C7.47471 25.5995 7.54803 26.3999 7.54803 27.1808V31.2504C7.54803 32.2437 7.36497 33.4392 7.77981 34.4037C8.25568 35.5223 9.3659 36.4 10.7935 36.7855C11.6842 37.0169 12.6359 36.9687 13.563 36.9687C15.1131 36.959 15.1131 35.0303 13.5393 35.0303L13.5395 35.0302Z" fill="white"/>
<path d="M49.4002 34.8474C48.7659 34.8474 48.1069 34.8956 47.5091 34.7027C46.7768 34.4616 46.2281 33.9218 46.0691 33.3143C45.9107 32.7262 46.0204 32.0511 46.0204 31.4533V25.3107C46.0204 24.3559 46.5573 23.4785 47.8141 23.2086C49.1442 22.9192 50.9133 23.1506 51.5846 24.2019C51.963 24.7899 51.8409 25.5327 51.8409 26.1691V29.525V32.6881C51.8405 33.8346 50.9739 34.8183 49.4002 34.8474C47.826 34.8762 47.826 36.8047 49.4002 36.7759C52.0969 36.7277 54.2321 35.0499 54.2809 32.9186C54.2932 32.1567 54.2809 31.3855 54.2809 30.6237V26.7663C54.2809 25.9177 54.3906 24.9921 54.1465 24.1626C53.866 23.1693 53.024 22.2918 51.9257 21.7711C50.9616 21.2986 49.9125 21.2119 48.8142 21.2119C46.3739 21.2119 44.1166 22.3595 43.6771 24.3555C43.4941 25.1656 43.5915 26.0333 43.5915 26.8532V30.8069C43.5915 31.7807 43.4449 32.8704 43.7258 33.835C44.0432 34.915 45.0191 35.8889 46.2882 36.3809C47.2886 36.7667 48.326 36.7955 49.412 36.7955C50.9739 36.776 50.9739 34.8474 49.4002 34.8474Z" fill="white"/>
<path d="M32.1964 43.7669C32.1477 44.712 31.0129 44.654 30.1345 44.654C29.2926 44.654 28.3655 44.7408 27.5235 44.654C26.34 44.5191 26.2302 43.1112 27.4502 42.8988C27.7553 42.8506 28.0968 42.8794 28.4142 42.8794H30.0249C30.9397 42.8701 32.1596 42.7833 32.1966 43.7669C32.2576 45.0013 34.6979 45.011 34.6369 43.7669C34.5881 42.7736 33.9902 41.8768 32.9165 41.356C32.233 41.0185 31.4643 40.9512 30.6715 40.9512H28.5727C27.9261 40.9512 27.2549 40.9224 26.6328 41.0764C23.9608 41.7418 23.2895 44.5864 25.4734 45.9557C26.7303 46.7464 28.3532 46.5827 29.8659 46.5827C30.5494 46.5827 31.2934 46.6309 31.9647 46.4959C33.563 46.1681 34.5757 45.0398 34.6491 43.7669C34.7096 42.5231 32.2693 42.5232 32.1964 43.7669Z" fill="white"/>
</svg>
